inDegrees=yes
name=ik_S51_A02_T02
DataType=double
version=3
OpenSimVersion=4.3-2021-08-27-4bc7ad9
endheader
time	pelvis_tilt	pelvis_list	pelvis_rotation	pelvis_tx	pelvis_ty	pelvis_tz	hip_flexion_r	hip_adduction_r	hip_rotation_r	knee_angle_r	knee_angle_r_beta	ankle_angle_r	subtalar_angle_r	mtp_angle_r	hip_flexion_l	hip_adduction_l	hip_rotation_l	knee_angle_l	knee_angle_l_beta	ankle_angle_l	subtalar_angle_l	mtp_angle_l	lumbar_extension	lumbar_bending	lumbar_rotation	arm_flex_r	arm_add_r	arm_rot_r	elbow_flex_r	pro_sup_r	wrist_flex_r	wrist_dev_r	arm_flex_l	arm_add_l	arm_rot_l	elbow_flex_l	pro_sup_l	wrist_flex_l	wrist_dev_l
0	0	0	0	0	0.9399999999999999	0	0	0	0	0	0	0	0	0	0	0	0	0	0	0	0	0	0	0	0	0	0	0	0	89.99999999963507	0	0	0	0	0	0	89.99999999869995	0	0
0.02	-0.5880060889052227	1.987996096960033	95.51041318273276	0	0.9399999999999999	0	-2.977426067306743	1.620134066109568	-10.0307086997231	0.6887127249109322	0.01202030465007774	0	0	0	-3.630832935065859	-1.98738796942932	-0.967581312614274	-2.012382839426874	-0.03512270635863132	0	0	0	0	0	0	1.974236389240225	-1.974236389240225	0.3515847957101144	9.767384696468028	89.64841522458309	0	0	1.974236389240225	-1.974236389240225	0.3515847957101144	9.767384696468028	89.64841522371387	0	0
0.04	-0.5937722629588259	2.021075376421228	95.67881052940261	0	0.9399999999999999	0	-2.960523157206666	1.627131761938452	-9.951061889391655	0.6759873108279353	0.01179820427564979	0	0	0	-3.667341488700384	-2.004390495131252	-0.8169410860793402	-2.010859500518334	-0.03509611907905354	0	0	0	0	0	0	1.975583401010223	-1.975583401010223	0.3518468725839504	9.77829815102432	89.64815314772491	0	0	1.975583401010223	-1.975583401010223	0.3518468725839504	9.77829815102432	89.64815314685573	0	0
0.06	-0.5753787607288365	2.037488092156272	95.86108912109033	0	0.9399999999999999	0	-2.995032192986218	1.681097299887236	-9.990441136390626	0.5688273631114692	0.009927910361732474	0	0	0	-3.455528437484329	-2.094223467568966	-0.9019481191966201	-1.758534732888493	-0.03069222109958322	0	0	0	0	0	0	1.982036261546504	-1.982036261546504	0.3531123921543648	9.832600848268743	89.64688762823025	0	0	1.982036261546504	-1.982036261546504	0.3531123921543648	9.832600848268743	89.64688762736125	0	0
0.08	-0.5873241593369526	2.048802298608182	95.93739112820261	0	0.9399999999999999	0	-2.979338915355363	1.680962921064599	-10.04599564993605	0.5213749144925129	0.00909970889519825	0	0	0	-3.34452197165501	-2.142834154651927	-1.037141125673007	-1.428266044140878	-0.02492794506469299	0	0	0	0	0	0	1.989863793545822	-1.989863793545822	0.3546473779489098	9.898241303082472	89.64535264252758	0	0	1.989863793545822	-1.989863793545822	0.3546473779489098	9.898241303082472	89.64535264165887	0	0
0.1	-0.6111104024296591	2.032509147485466	96.08457425048229	0	0.9399999999999999	0	-2.964621385073077	1.691509379653431	-10.10118661335208	0.4714303725653137	0.00822801219516827	0	0	0	-3.32556745525498	-2.142451337438278	-0.890033777370879	-1.368964176223978	-0.02389293221696029	0	0	0	0	0	0	1.993434632592186	-1.993434632592186	0.3553447393586728	9.927539713980604	89.64465528115952	0	0	1.993434632592186	-1.993434632592186	0.3553447393586728	9.927539713980604	89.64465528029092	0	0
0.12	-0.591415794242939	1.984208560647962	96.22071327059535	0	0.9399999999999999	0	-2.940392202862539	1.730865780366043	-10.18041152101642	0.3684814296838428	0.006431214180439026	0	0	0	-3.089055820141019	-2.202304242636661	-0.9219399233711569	-1.017263393974421	-0.01775459558486589	0	0	0	0	0	0	2.000193554610677	-2.000193554610677	0.356669002997953	9.983728556782612	89.64333101759945	0	0	2.000193554610677	-2.000193554610677	0.356669002997953	9.983728556782612	89.64333101673118	0	0
0.14	-0.5742476531030491	1.958343147823064	96.34500379321381	0	0.9399999999999999	0	-2.90918302154122	1.752907987309746	-10.30264702639437	0.3058946431033422	0.005338868686366287	0	0	0	-2.67403588688748	-2.262883532525087	-1.049706222298556	-0.4766778207227855	-0.008319597442843864	0	0	0	0	0	0	2.008573382106896	-2.008573382106896	0.3583110356322748	10.05326653209351	89.64168898506338	0	0	2.008573382106896	-2.008573382106896	0.3583110356322748	10.05326653209351	89.64168898419544	0	0
0.16	-0.5444719442376259	1.949681437194211	96.46580031861579	0	0.9399999999999999	0	-2.893700608547035	1.768288894224285	-10.40075579972351	0.2392875502710831	0.004176355611261851	0	0	0	-2.452998097321381	-2.346212596523547	-1.082400369112652	-0.1213548611375659	-0.002118041890151036	0	0	0	0	0	0	2.016963519026604	-2.016963519026604	0.3599549640552182	10.12262799767462	89.6400450567388	0	0	2.016963519026604	-2.016963519026604	0.3599549640552182	10.12262799767462	89.64004505587113	0	0
0.18	-0.4878889870215045	1.928583863997033	96.59012986077686	0	0.9399999999999999	0	-2.859988652287116	1.815813294411278	-10.48542948028615	0.2074259624711162	0.003620265999239171	0	0	0	-2.20856891320196	-2.444648547166783	-1.059391131641894	0.2118351622773857	0.003697221053236869	0	0	0	0	0	0	2.02283058083326	-2.02283058083326	0.3611026773889035	10.17063808117672	89.63889734347383	0	0	2.02283058083326	-2.02283058083326	0.3611026773889035	10.17063808117672	89.6388973426063	0	0
0.2	-0.4604028492686372	1.928586864742885	96.7020642478176	0	0.9399999999999999	0	-2.840981240244019	1.841969665227419	-10.51309675323689	0.1708927644341192	0.002982641407210444	0	0	0	-2.014404867734624	-2.481738731533977	-0.9475637119173903	0.5457142442525975	0.009524510337240369	0	0	0	0	0	0	2.031912964767878	-2.031912964767878	0.3628806567497231	10.24502618044225	89.63711936421936	0	0	2.031912964767878	-2.031912964767878	0.3628806567497231	10.24502618044225	89.63711936335221	0	0
0.22	-0.4304226854401375	1.882624936409196	96.80229037446877	0	0.9399999999999999	0	-2.778334837046547	1.879748718410844	-10.56486288476014	0.1487316057579812	0.002595856222254928	0	0	0	-1.827817381188374	-2.5306363486138	-0.9005596846506009	0.6675936055565127	0.01165170648222146	0	0	0	0	0	0	2.038358088359635	-2.038358088359635	0.3641423939627494	10.2976754259541	89.63585762708183	0	0	2.038358088359635	-2.038358088359635	0.3641423939627494	10.2976754259541	89.63585762621486	0	0
0.24	-0.4398383624127714	1.910026945190046	96.86881850812293	0	0.9399999999999999	0	-2.760302055714808	1.790632629373968	-10.65772712078747	0.2733023331193848	0.00477002556631561	0	0	0	-1.740669985261257	-2.543808970583265	-0.8428761035512011	0.8807098594937182	0.01537128680294202	0	0	0	0	0	0	2.442170497149331	-2.442170497149331	0.4398044571781338	11.85723999156762	89.56019556833569	0	0	2.442170497149331	-2.442170497149331	0.4398044571781338	11.85723999156762	89.56019556748286	0	0
0.26	-0.4146530882319352	1.913884163898978	96.91700705650372	0	0.9399999999999999	0	-2.722917130540098	1.756733685461975	-10.81780681464354	0.2985932769067244	0.00521143580634149	0	0	0	-1.689166766358253	-2.588308320412872	-0.9318496251542143	0.9113564907233684	0.01590617142254394	0	0	0	0	0	0	2.443659554399786	-2.443659554399786	0.4400878254362847	11.86740343681477	89.55991220009442	0	0	2.443659554399786	-2.443659554399786	0.4400878254362847	11.86740343681477	89.55991219924162	0	0
0.28	-0.4001842797728748	1.885223152075253	96.98123611169983	0	0.9399999999999999	0	-2.601533441826696	1.728479239476161	-10.94447668126963	0.5196214919854737	0.009069105899271844	0	0	0	-1.529808228411343	-2.62524119505461	-0.9974215301704923	1.161729126644196	0.0202759982762594	0	0	0	0	0	0	2.450454953944386	-2.450454953944386	0.4414092762894034	11.91847469749491	89.5585907493202	0	0	2.450454953944386	-2.450454953944386	0.4414092762894034	11.91847469749491	89.55859074846762	0	0
0.3	-0.3636807917360191	1.868710726287541	96.98568014929562	0	0.9399999999999999	0	-2.460433542184654	1.692842798127462	-11.00767600171687	0.8691584460234147	0.015169676604626	0	0	0	-1.370017628620882	-2.675592500762363	-1.034547361995531	1.5407419969324	0.02689102077022276	0	0	0	0	0	0	2.570203731500091	-2.570203731500091	0.464190209324953	12.5140734372894	89.53580981763652	0	0	2.570203731500091	-2.570203731500091	0.464190209324953	12.5140734372894	89.53580981678819	0	0
0.32	-0.336033267202346	1.966218651394856	97.02456620915574	0	0.9399999999999999	0	-2.607203275642922	1.762253108039959	-11.04814749936852	0.7255374031012746	0.01266301653048656	0	0	0	-1.417681599468037	-2.711243042526817	-0.9714363325991502	1.500525703329462	0.02618911403390274	0	0	0	0	0	0	2.638858236034548	-2.638858236034548	0.4767236350547159	12.68093589637414	89.52327639264192	0	0	2.638858236034548	-2.638858236034548	0.4767236350547159	12.68093589637414	89.5232763917959	0	0
0.34	-0.3266043200857434	1.960566477713971	97.0211275889814	0	0.9399999999999999	0	-2.57404232816913	1.718592245241884	-11.06862154060054	0.7165623915519842	0.01250637302854692	0	0	0	-1.336431329035991	-2.731082840907354	-1.005481595824261	1.634256450271361	0.02852315587919023	0	0	0	0	0	0	3.014916544708794	-3.014916544708794	0.546528415832194	13.99901791082599	89.45347161597772	0	0	3.014916544708794	-3.014916544708794	0.546528415832194	13.99901791082599	89.45347161514482	0	0
0.36	-0.2903659778615227	2.024035956840658	97.00770711317881	0	0.9399999999999999	0	-2.560044356766886	1.678941065787123	-11.06678274975228	0.7260756763544844	0.01267241117103049	0	0	0	-1.321487419786177	-2.744673625551331	-0.9795862033826348	1.643311430145404	0.0286811950916941	0	0	0	0	0	0	3.015393723672914	-3.015393723672914	0.546617041244905	14.0017907747944	89.45338299057025	0	0	3.015393723672914	-3.015393723672914	0.546617041244905	14.0017907747944	89.45338298973736	0	0
0.3800000000000001	-0.298710433068184	2.083490923234897	97.06693474220296	0	0.9399999999999999	0	-2.601324623709129	1.660343935546756	-11.14721917589491	0.8595821689918194	0.01500253904034156	0	0	0	-1.288186912806162	-2.752421148740749	-0.8978990279908439	1.857054341375019	0.03241171264544884	0	0	0	0	0	0	3.175691307157564	-3.175691307157564	0.5765019471504242	14.62965901690498	89.42349808642837	0	0	3.175691307157564	-3.175691307157564	0.5765019471504242	14.62965901690498	89.42349808560104	0	0
0.4000000000000001	-0.2738710815784763	2.050977521189557	97.06493123118788	0	0.9399999999999999	0	-2.456522062512284	1.624234124204187	-11.19620517493873	1.19164382751027	0.0207981083011216	0	0	0	-1.077485888130237	-2.772673903205672	-0.9389277216827819	2.235689507856103	0.03902014296438063	0	0	0	0	0	0	3.303406404617238	-3.303406404617239	0.6004965252289632	15.20803508077095	89.39950350976895	0	0	3.303406404617238	-3.303406404617239	0.6004965252289632	15.20803508077095	89.39950350894611	0	0
